# xmcd
#
# Track frame offsets:
#	150
#	16730
#	35452
#	55264
#	71863
#	89055
#	108632
#	124783
#	141426
#	161017
#	176947
#	203933
#	222345
#	244655
#	265774
#	289272
#	314902
#	333195
#
# Disc length: 4709 seconds
#
# Revision: 1
# Processed by: cddbd v1.4PL0 Copyright (c) Steve Scherf et al.
# Submitted via: MusicManager 7.0.3.0 
#
DISCID=23126312
DTITLE=Era - The Mass and bonus
DYEAR=2032
DGENRE=New Age
TTITLE0=The Mass
TTITLE1=Looking For Something
TTITLE2=Don't Go Away
TTITLE3=Don't You Forget
TTITLE4=If You Shout
TTITLE5=Avemano Orchestral
TTITLE6=Enae Volare
TTITLE7=Sombre Day
TTITLE8=Vonifera
TTITLE9=The Champions
TTITLE10=Sacral Nirvana (Radio Edit)
TTITLE11=SiochainAgus ionannas
TTITLE12=Sangha's Love For Amitabha
TTITLE13=Journey To Shambala
TTITLE14=Boddhisattva lano
TTITLE15=Tara Shakti Mantra
TTITLE16=Legend Of A White Stupa
TTITLE17=Donovan My Timeless Cosmic Friend
EXTD=
EXTT0=
EXTT1=
EXTT2=
EXTT3=
EXTT4=
EXTT5=
EXTT6=
EXTT7=
EXTT8=
EXTT9=
EXTT10=
EXTT11=
EXTT12=
EXTT13=
EXTT14=
EXTT15=
EXTT16=
EXTT17=
PLAYORDER=
